<?xml version="1.0" encoding="UTF-8"?>
<!DOCTYPE svg
PUBLIC "-//W3C//DTD SVG 1.1//EN"
       "http://www.w3.org/Graphics/SVG/1.1/DTD/svg11.dtd">
<svg viewBox="45 17 974 445" width="929px" height="428px" xmlns="http://www.w3.org/2000/svg" version="1.1">
   <line x1="570" y1="220" x2="560" y2="220" style="stroke:#cb0;stroke-width:1;"/>
   <line x1="403" y1="62" x2="393" y2="62" style="stroke:#cb0;stroke-width:1;"/>
   <line x1="560" y1="220" x2="403" y2="62" style="stroke:#cb0;stroke-width:1;"/>
   <line x1="562.5" y1="220" x2="566.03553390593" y2="223.53553390593" style="stroke:#cb0;stroke-width:2;"/>
   <line x1="562.5" y1="220" x2="566.03553390593" y2="216.46446609407" style="stroke:#cb0;stroke-width:2;"/>
   <line x1="398" y1="62" x2="401.53553390593" y2="65.535533905933" style="stroke:#cb0;stroke-width:2;"/>
   <line x1="398" y1="62" x2="401.53553390593" y2="58.464466094067" style="stroke:#cb0;stroke-width:2;"/>
   <line x1="570" y1="260" x2="560" y2="260" style="stroke:#b0b;stroke-width:1;"/>
   <line x1="560" y1="400" x2="570" y2="400" style="stroke:#b0b;stroke-width:1;"/>
   <line x1="560" y1="260" x2="560" y2="400" style="stroke:#b0b;stroke-width:1;"/>
   <line x1="562.5" y1="260" x2="566.03553390593" y2="263.53553390593" style="stroke:#b0b;stroke-width:2;"/>
   <line x1="562.5" y1="260" x2="566.03553390593" y2="256.46446609407" style="stroke:#b0b;stroke-width:2;"/>
   <line x1="565" y1="400" x2="561.46446609407" y2="403.53553390593" style="stroke:#b0b;stroke-width:2;"/>
   <line x1="565" y1="400" x2="561.46446609407" y2="396.46446609407" style="stroke:#b0b;stroke-width:2;"/>
   <line x1="850" y1="400" x2="840" y2="400" style="stroke:#0bf;stroke-width:1;"/>
   <line x1="729" y1="220" x2="719" y2="220" style="stroke:#0bf;stroke-width:1;"/>
   <line x1="840" y1="400" x2="729" y2="220" style="stroke:#0bf;stroke-width:1;"/>
   <line x1="842.5" y1="400" x2="846.03553390593" y2="403.53553390593" style="stroke:#0bf;stroke-width:2;"/>
   <line x1="842.5" y1="400" x2="846.03553390593" y2="396.46446609407" style="stroke:#0bf;stroke-width:2;"/>
   <line x1="724" y1="220" x2="727.53553390593" y2="223.53553390593" style="stroke:#0bf;stroke-width:2;"/>
   <line x1="724" y1="220" x2="727.53553390593" y2="216.46446609407" style="stroke:#0bf;stroke-width:2;"/>
   <line x1="162" y1="200" x2="172" y2="200" style="stroke:#b0b;stroke-width:1;"/>
   <line x1="295" y1="62" x2="305" y2="62" style="stroke:#b0b;stroke-width:1;"/>
   <line x1="172" y1="200" x2="295" y2="62" style="stroke:#b0b;stroke-width:1;"/>
   <line x1="169.5" y1="200" x2="165.96446609407" y2="203.53553390593" style="stroke:#b0b;stroke-width:2;"/>
   <line x1="169.5" y1="200" x2="165.96446609407" y2="196.46446609407" style="stroke:#b0b;stroke-width:2;"/>
   <line x1="300" y1="62" x2="296.46446609407" y2="65.535533905933" style="stroke:#b0b;stroke-width:2;"/>
   <line x1="300" y1="62" x2="296.46446609407" y2="58.464466094067" style="stroke:#b0b;stroke-width:2;"/>
   <line x1="162" y1="220" x2="172" y2="220" style="stroke:#0bf;stroke-width:1;"/>
   <line x1="560" y1="220" x2="570" y2="220" style="stroke:#0bf;stroke-width:1;"/>
   <line x1="172" y1="220" x2="560" y2="220" style="stroke:#0bf;stroke-width:1;"/>
   <line x1="169.5" y1="220" x2="165.96446609407" y2="223.53553390593" style="stroke:#0bf;stroke-width:2;"/>
   <line x1="169.5" y1="220" x2="165.96446609407" y2="216.46446609407" style="stroke:#0bf;stroke-width:2;"/>
   <line x1="565" y1="220" x2="561.46446609407" y2="223.53553390593" style="stroke:#0bf;stroke-width:2;"/>
   <line x1="565" y1="220" x2="561.46446609407" y2="216.46446609407" style="stroke:#0bf;stroke-width:2;"/>
   <line x1="60" y1="240" x2="50" y2="240" style="stroke:#c00;stroke-width:1;"/>
   <line x1="50" y1="200" x2="60" y2="200" style="stroke:#c00;stroke-width:1;"/>
   <line x1="50" y1="240" x2="50" y2="200" style="stroke:#c00;stroke-width:1;"/>
   <line x1="52.5" y1="240" x2="56.035533905933" y2="243.53553390593" style="stroke:#c00;stroke-width:2;"/>
   <line x1="52.5" y1="240" x2="56.035533905933" y2="236.46446609407" style="stroke:#c00;stroke-width:2;"/>
   <line x1="55" y1="200" x2="51.464466094067" y2="203.53553390593" style="stroke:#c00;stroke-width:2;"/>
   <line x1="55" y1="200" x2="51.464466094067" y2="196.46446609407" style="stroke:#c00;stroke-width:2;"/>
   <rect width="119" height="20" x="570" y="370" style="fill:#007;stroke:black;"/>
   <text width="119" height="20" x="575" y="384" style="fill:#fff;" font-family="Arial" font-size="16px"> mssh_catergory</text>
   <rect width="119" height="20" x="570" y="390" style="fill:#aea;stroke:black;"/>
   <text width="119" height="20" x="575" y="404" style="fill:black;" font-family="Arial" font-size="16px">id</text>
   <rect width="119" height="20" x="570" y="410" style="fill:none;stroke:black;"/>
   <text width="119" height="20" x="575" y="424" style="fill:black;" font-family="Arial" font-size="16px">title</text>
   <rect width="88" height="20" x="305" y="32" style="fill:#007;stroke:black;"/>
   <text width="88" height="20" x="310" y="46" style="fill:#fff;" font-family="Arial" font-size="16px"> mssh_elem</text>
   <rect width="88" height="20" x="305" y="52" style="fill:none;stroke:black;"/>
   <text width="88" height="20" x="310" y="66" style="fill:black;" font-family="Arial" font-size="16px">id</text>
   <rect width="88" height="20" x="305" y="72" style="fill:none;stroke:black;"/>
   <text width="88" height="20" x="310" y="86" style="fill:black;" font-family="Arial" font-size="16px">authorId</text>
   <rect width="88" height="20" x="305" y="92" style="fill:none;stroke:black;"/>
   <text width="88" height="20" x="310" y="106" style="fill:black;" font-family="Arial" font-size="16px">date</text>
   <rect width="88" height="20" x="305" y="112" style="fill:none;stroke:black;"/>
   <text width="88" height="20" x="310" y="126" style="fill:black;" font-family="Arial" font-size="16px">lastModif</text>
   <rect width="149" height="20" x="570" y="190" style="fill:#007;stroke:black;"/>
   <text width="149" height="20" x="575" y="204" style="fill:#fff;" font-family="Arial" font-size="16px"> mssh_ForumThread</text>
   <rect width="149" height="20" x="570" y="210" style="fill:none;stroke:black;"/>
   <text width="149" height="20" x="575" y="224" style="fill:black;" font-family="Arial" font-size="16px">id</text>
   <rect width="149" height="20" x="570" y="230" style="fill:none;stroke:black;"/>
   <text width="149" height="20" x="575" y="244" style="fill:black;" font-family="Arial" font-size="16px">title</text>
   <rect width="149" height="20" x="570" y="250" style="fill:none;stroke:black;"/>
   <text width="149" height="20" x="575" y="264" style="fill:black;" font-family="Arial" font-size="16px">category</text>
   <rect width="149" height="20" x="570" y="270" style="fill:none;stroke:black;"/>
   <text width="149" height="20" x="575" y="284" style="fill:black;" font-family="Arial" font-size="16px">answered</text>
   <rect width="149" height="20" x="570" y="290" style="fill:none;stroke:black;"/>
   <text width="149" height="20" x="575" y="304" style="fill:black;" font-family="Arial" font-size="16px">child</text>
   <rect width="109" height="20" x="850" y="370" style="fill:#007;stroke:black;"/>
   <text width="109" height="20" x="855" y="384" style="fill:#fff;" font-family="Arial" font-size="16px"> mssh_FT_tags</text>
   <rect width="109" height="20" x="850" y="390" style="fill:none;stroke:black;"/>
   <text width="109" height="20" x="855" y="404" style="fill:black;" font-family="Arial" font-size="16px">id</text>
   <rect width="109" height="20" x="850" y="410" style="fill:#aea;stroke:black;"/>
   <text width="109" height="20" x="855" y="424" style="fill:black;" font-family="Arial" font-size="16px">tag</text>
   <rect width="102" height="20" x="60" y="170" style="fill:#007;stroke:black;"/>
   <text width="102" height="20" x="65" y="184" style="fill:#fff;" font-family="Arial" font-size="16px"> mssh_Post</text>
   <rect width="102" height="20" x="60" y="190" style="fill:none;stroke:black;"/>
   <text width="102" height="20" x="65" y="204" style="fill:black;" font-family="Arial" font-size="16px">id</text>
   <rect width="102" height="20" x="60" y="210" style="fill:none;stroke:black;"/>
   <text width="102" height="20" x="65" y="224" style="fill:black;" font-family="Arial" font-size="16px">forumThread</text>
   <rect width="102" height="20" x="60" y="230" style="fill:none;stroke:black;"/>
   <text width="102" height="20" x="65" y="244" style="fill:black;" font-family="Arial" font-size="16px">parent</text>
   <rect width="102" height="20" x="60" y="250" style="fill:none;stroke:black;"/>
   <text width="102" height="20" x="65" y="264" style="fill:black;" font-family="Arial" font-size="16px">content</text>
</svg>
